<?xml version="1.0" standalone="no"?>
<!DOCTYPE svg PUBLIC "-//W3C//DTD SVG 20010904//EN"
 "http://www.w3.org/TR/2001/REC-SVG-20010904/DTD/svg10.dtd">
<svg version="1.0" xmlns="http://www.w3.org/2000/svg"
 width="200.000000pt" height="200.000000pt" viewBox="0 0 200.000000 200.000000"
 preserveAspectRatio="xMidYMid meet">

<g transform="translate(0.000000,200.000000) scale(0.100000,-0.100000)"
fill="#000000" stroke="none">
<path d="M770 1530 c0 -102 15 -160 42 -160 7 0 -12 -22 -41 -49 -60 -56 -60
-68 5 -117 l36 -28 -7 -88 -7 -88 197 0 197 0 -7 83 -7 84 41 32 c70 56 71 66
11 121 l-53 49 22 27 c18 23 21 40 21 130 l0 104 -30 0 c-28 0 -30 -3 -30 -36
0 -34 -1 -35 -32 -32 -29 3 -33 7 -36 36 -3 28 -7 32 -32 32 -25 0 -29 -4 -32
-32 -3 -29 -6 -33 -33 -33 -27 0 -30 4 -33 33 -3 28 -7 32 -32 32 -25 0 -29
-4 -32 -32 -3 -29 -7 -33 -35 -36 -32 -3 -33 -2 -33 32 0 33 -2 36 -30 36
l-30 0 0 -100z m365 -177 c22 -12 53 -35 69 -52 l30 -31 -30 -31 c-71 -76
-195 -106 -298 -74 -57 18 -136 76 -136 100 0 19 56 64 115 92 43 21 61 23
130 20 56 -2 92 -10 120 -24z"/>
<path d="M936 1348 c-58 -51 -50 -139 16 -171 25 -13 48 -16 68 -12 40 9 80
58 80 98 0 30 -3 32 -32 32 -31 0 -33 2 -33 35 -1 33 -3 35 -37 38 -26 2 -43
-3 -62 -20z m92 -74 c2 -11 -3 -26 -11 -33 -29 -24 -70 17 -46 46 17 20 53 12
57 -13z"/>
<path d="M810 903 c-25 -9 -40 -35 -40 -71 0 -52 15 -72 55 -72 33 0 35 -2 35
-35 0 -28 -4 -35 -20 -35 -11 0 -20 7 -20 15 0 9 -9 15 -25 15 -29 0 -34 -29
-9 -54 18 -19 94 -22 112 -4 16 16 16 113 0 126 -7 6 -26 12 -43 14 -23 2 -31
9 -33 27 -5 33 15 51 32 29 18 -25 56 -24 56 1 0 36 -55 60 -100 44z"/>
<path d="M280 775 l0 -125 55 0 c52 0 55 1 55 25 0 21 -5 25 -30 25 -27 0 -30
3 -30 30 0 27 3 30 30 30 23 0 30 4 30 20 0 16 -7 20 -30 20 -27 0 -30 3 -30
30 0 27 3 30 30 30 23 0 30 4 30 20 0 18 -7 20 -55 20 l-55 0 0 -125z"/>
<path d="M510 870 c0 -27 -3 -30 -33 -30 -18 0 -38 -5 -45 -12 -16 -16 -16
-152 1 -166 6 -6 38 -10 70 -10 l57 1 0 123 0 124 -25 0 c-21 0 -25 -5 -25
-30z m-2 -122 c-2 -48 -7 -63 -18 -63 -11 0 -16 15 -18 63 -3 57 -1 62 18 62
19 0 21 -5 18 -62z"/>
<path d="M600 756 c0 -56 4 -87 13 -94 7 -6 36 -11 65 -10 l52 0 0 94 c0 94 0
94 -25 94 -25 0 -25 -1 -25 -80 0 -64 -3 -80 -15 -80 -12 0 -15 16 -15 80 0
79 0 80 -25 80 -25 0 -25 -1 -25 -84z"/>
<path d="M962 828 c-16 -16 -16 -150 0 -166 13 -13 86 -16 104 -4 6 4 13 17
16 30 5 18 2 22 -17 22 -13 0 -25 -7 -29 -15 -9 -25 -36 -18 -36 9 0 22 5 25
43 28 37 3 42 6 45 29 2 14 -2 37 -7 52 -9 24 -16 27 -59 27 -26 0 -53 -5 -60
-12z m76 -41 c2 -12 -3 -17 -17 -17 -15 0 -21 6 -21 21 0 25 33 22 38 -4z"/>
<path d="M1127 834 c-12 -12 -8 -159 5 -172 7 -7 30 -12 53 -12 48 0 65 13 65
53 0 24 -4 28 -22 25 -15 -2 -24 -11 -26 -25 -2 -13 -10 -23 -18 -23 -11 0
-14 15 -14 65 0 51 3 65 15 65 8 0 15 -9 15 -20 0 -15 7 -20 26 -20 23 0 25 3
22 33 -3 31 -4 32 -58 35 -31 2 -59 0 -63 -4z"/>
<path d="M1290 756 c0 -58 4 -87 13 -95 8 -6 38 -10 68 -8 l54 2 3 93 3 92
-25 0 c-24 0 -25 -2 -28 -77 -2 -61 -6 -78 -18 -78 -12 0 -16 17 -18 78 -3 74
-4 77 -27 77 -25 0 -25 -1 -25 -84z"/>
<path d="M1462 747 c3 -87 4 -92 26 -95 21 -3 22 0 22 68 0 63 2 72 20 77 11
3 20 13 20 23 0 14 -9 18 -45 18 l-46 1 3 -92z"/>
<path d="M1586 824 c-11 -28 -6 -150 6 -162 13 -13 86 -16 104 -4 6 4 13 17
16 30 5 18 2 22 -17 22 -13 0 -25 -7 -29 -15 -9 -25 -36 -18 -36 9 0 22 5 25
43 28 37 3 42 6 45 29 2 14 -2 37 -7 52 -10 25 -15 27 -65 27 -40 0 -55 -4
-60 -16z m82 -37 c2 -12 -3 -17 -17 -17 -15 0 -21 6 -21 21 0 25 33 22 38 -4z"/>
</g>
</svg>
