<svg width="32" height="32" viewBox="0 0 32 32" fill="none" xmlns="http://www.w3.org/2000/svg">
<path d="M25.9334 9.25333V12.6C25.9334 13.5467 24.9734 14.16 24.0801 13.8267C22.9601 13.4133 21.7201 13.2533 20.4134 13.3867C17.2401 13.7333 13.9867 16.7867 13.4534 19.9467C13.0134 22.5733 13.8534 25.0267 15.4667 26.76C16.2001 27.56 15.7067 28.8533 14.6267 28.9733C13.7067 29.08 12.8001 29.0533 12.2934 28.68L4.96005 23.2C4.09339 22.5467 3.38672 21.1333 3.38672 20.04V9.25333C3.38672 7.74667 4.53339 6.09333 5.93339 5.56L13.2667 2.81333C14.0267 2.53333 15.2801 2.53333 16.0401 2.81333L23.3734 5.56C24.7867 6.09333 25.9334 7.74667 25.9334 9.25333Z" fill="#292D32"/>
<path d="M21.3335 15.3467C18.0268 15.3467 15.3335 18.04 15.3335 21.3467C15.3335 24.6533 18.0268 27.3467 21.3335 27.3467C24.6402 27.3467 27.3335 24.6533 27.3335 21.3467C27.3335 18.0267 24.6402 15.3467 21.3335 15.3467Z" fill="#292D32"/>
<path d="M27.9998 29.3333C27.6398 29.3333 27.3065 29.1866 27.0532 28.9466C26.9998 28.88 26.9332 28.8133 26.8932 28.7333C26.8398 28.6666 26.7998 28.5866 26.7732 28.5066C26.7332 28.4266 26.7065 28.3466 26.6932 28.2666C26.6798 28.1733 26.6665 28.0933 26.6665 28C26.6665 27.8266 26.7065 27.6533 26.7732 27.4933C26.8398 27.32 26.9332 27.1866 27.0532 27.0533C27.3598 26.7466 27.8265 26.6 28.2532 26.6933C28.3465 26.7066 28.4265 26.7333 28.5065 26.7733C28.5865 26.8 28.6665 26.84 28.7332 26.8933C28.8132 26.9333 28.8798 27 28.9465 27.0533C29.0665 27.1866 29.1598 27.32 29.2265 27.4933C29.2932 27.6533 29.3332 27.8266 29.3332 28C29.3332 28.3466 29.1865 28.6933 28.9465 28.9466C28.8798 29 28.8132 29.0533 28.7332 29.1066C28.6665 29.16 28.5865 29.2 28.5065 29.2266C28.4265 29.2666 28.3465 29.2933 28.2532 29.3066C28.1732 29.32 28.0798 29.3333 27.9998 29.3333Z" fill="#292D32"/>
</svg>
