<svg width="32" height="32" viewBox="0 0 32 32" fill="none" xmlns="http://www.w3.org/2000/svg">
<path d="M13.4269 3.76002L4.18686 11.16C3.14686 11.9867 2.48019 13.7334 2.70686 15.04L4.48019 25.6533C4.80019 27.5467 6.61352 29.08 8.53352 29.08H23.4669C25.3735 29.08 27.2002 27.5333 27.5202 25.6533L29.2935 15.04C29.5069 13.7334 28.8402 11.9867 27.8135 11.16L18.5735 3.77336C17.1468 2.6267 14.8402 2.62668 13.4269 3.76002Z" stroke="#292D32" stroke-width="1.5" stroke-linecap="round" stroke-linejoin="round"/>
<path d="M15.9998 20.6667C17.8408 20.6667 19.3332 19.1743 19.3332 17.3333C19.3332 15.4924 17.8408 14 15.9998 14C14.1589 14 12.6665 15.4924 12.6665 17.3333C12.6665 19.1743 14.1589 20.6667 15.9998 20.6667Z" stroke="#292D32" stroke-width="1.5" stroke-linecap="round" stroke-linejoin="round"/>
</svg>
