<svg width="384" height="449" viewBox="0 0 384 449" fill="none" xmlns="http://www.w3.org/2000/svg">
<path d="M48 192.102C43.7565 192.102 39.6869 193.787 36.6863 196.788C33.6857 199.788 32 203.858 32 208.102V400.102C32 404.345 33.6857 408.415 36.6863 411.415C39.6869 414.416 43.7565 416.102 48 416.102H336C340.243 416.102 344.313 414.416 347.314 411.415C350.314 408.415 352 404.345 352 400.102V208.102C352 203.858 350.314 199.788 347.314 196.788C344.313 193.787 340.243 192.102 336 192.102H48ZM48 160.102H336C348.73 160.102 360.939 165.159 369.941 174.16C378.943 183.162 384 195.371 384 208.102V400.102C384 412.832 378.943 425.041 369.941 434.043C360.939 443.044 348.73 448.102 336 448.102H48C35.2696 448.102 23.0606 443.044 14.0589 434.043C5.05713 425.041 0 412.832 0 400.102V208.102C0 195.371 5.05713 183.162 14.0589 174.16C23.0606 165.159 35.2696 160.102 48 160.102Z" fill="black"/>
<path d="M192 240.102C196.244 240.102 200.313 241.788 203.314 244.788C206.314 247.789 208 251.858 208 256.102V352.102C208 356.345 206.314 360.415 203.314 363.416C200.313 366.416 196.244 368.102 192 368.102C187.757 368.102 183.687 366.416 180.686 363.416C177.686 360.415 176 356.345 176 352.102V256.102C176 251.858 177.686 247.789 180.686 244.788C183.687 241.788 187.757 240.102 192 240.102ZM281.152 92.4539C272.846 71.7615 257.598 54.6043 238.024 43.9255C218.451 33.2467 195.771 29.7119 173.876 33.9275C151.981 38.143 132.235 49.8462 118.026 67.0293C103.816 84.2125 96.0292 105.805 96 128.102V160.102H272L320 179.302V192.102H64V128.102C63.9764 98.3376 74.3263 69.4955 93.2691 46.5372C112.212 23.579 138.564 7.93997 167.791 2.31049C197.018 -3.31899 227.293 1.41304 253.408 15.6925C279.524 29.972 299.846 52.9063 310.88 80.5499L281.152 92.4539Z" fill="black"/>
</svg>