<svg width="38" height="47" viewBox="0 0 38 47" fill="none" xmlns="http://www.w3.org/2000/svg">
<path d="M10.5 18.7222H6.25C5.12283 18.7222 4.04183 19.2256 3.2448 20.1216C2.44777 21.0176 2 22.2329 2 23.5V40.2222C2 41.4894 2.44777 42.7046 3.2448 43.6006C4.04183 44.4966 5.12283 45 6.25 45H31.75C32.8772 45 33.9582 44.4966 34.7552 43.6006C35.5522 42.7046 36 41.4894 36 40.2222V23.5C36 22.2329 35.5522 21.0176 34.7552 20.1216C33.9582 19.2256 32.8772 18.7222 31.75 18.7222H27.5M10.5 18.7222V11.5556C10.5 9.02126 11.3955 6.59077 12.9896 4.79876C14.5837 3.00674 16.7457 2 19 2C21.2543 2 23.4163 3.00674 25.0104 4.79876C26.6045 6.59077 27.5 9.02126 27.5 11.5556V18.7222M10.5 18.7222H27.5M19 28.2778V35.4444" stroke="black" stroke-width="3.5" stroke-linecap="round" stroke-linejoin="round"/>
</svg>
