<svg width="32" height="32" viewBox="0 0 32 32" fill="none" xmlns="http://www.w3.org/2000/svg">
<path d="M27.8135 11.16L18.5735 3.77336C17.1469 2.62669 14.8402 2.62669 13.4269 3.76002L4.18686 11.16C3.14686 11.9867 2.48019 13.7334 2.70686 15.04L4.48019 25.6534C4.80019 27.5467 6.61352 29.08 8.53352 29.08H23.4669C25.3735 29.08 27.2002 27.5334 27.5202 25.6534L29.2935 15.04C29.5069 13.7334 28.8402 11.9867 27.8135 11.16ZM16.0002 20.6667C14.1602 20.6667 12.6669 19.1734 12.6669 17.3334C12.6669 15.4934 14.1602 14 16.0002 14C17.8402 14 19.3335 15.4934 19.3335 17.3334C19.3335 19.1734 17.8402 20.6667 16.0002 20.6667Z" fill="#292D32"/>
</svg>
