<svg width="33" height="32" viewBox="0 0 33 32" fill="none" xmlns="http://www.w3.org/2000/svg">
<path d="M28.3115 14.0667V9.49333C28.3115 7.85333 27.019 6.04 25.4377 5.46666L18.5765 2.97333C17.4352 2.56 15.5652 2.56 14.424 2.97333L7.56271 5.48C5.98146 6.05333 4.68896 7.86666 4.68896 9.49333V19.4C4.68896 20.9733 5.76146 23.04 7.06771 23.9867L12.9802 28.2667C13.9427 28.9867 15.2215 29.3333 16.5002 29.3333" stroke="#292D32" stroke-width="1.5" stroke-linecap="round" stroke-linejoin="round"/>
<path d="M22 26.6667C25.0376 26.6667 27.5 24.2789 27.5 21.3333C27.5 18.3878 25.0376 16 22 16C18.9624 16 16.5 18.3878 16.5 21.3333C16.5 24.2789 18.9624 26.6667 22 26.6667Z" stroke="#292D32" stroke-width="1.5" stroke-linecap="round" stroke-linejoin="round"/>
<path d="M28.8688 28H28.8812" stroke="#292D32" stroke-width="2" stroke-linecap="round" stroke-linejoin="round"/>
</svg>
