<svg width="33" height="32" viewBox="0 0 33 32" fill="none" xmlns="http://www.w3.org/2000/svg">
<path d="M16.5 20C18.7782 20 20.625 18.2091 20.625 16C20.625 13.7909 18.7782 12 16.5 12C14.2218 12 12.375 13.7909 12.375 16C12.375 18.2091 14.2218 20 16.5 20Z" stroke="#292D32" stroke-width="1.5" stroke-miterlimit="10" stroke-linecap="round" stroke-linejoin="round"/>
<path d="M2.75 17.1733V14.8267C2.75 13.44 3.91875 12.2933 5.3625 12.2933C7.85125 12.2933 8.86875 10.5867 7.6175 8.49333C6.9025 7.29333 7.32875 5.73333 8.58 5.04L10.9587 3.72C12.045 3.09333 13.4475 3.46666 14.0938 4.52L14.245 4.77333C15.4825 6.86666 17.5175 6.86666 18.7687 4.77333L18.92 4.52C19.5663 3.46666 20.9688 3.09333 22.055 3.72L24.4338 5.04C25.685 5.73333 26.1112 7.29333 25.3962 8.49333C24.145 10.5867 25.1625 12.2933 27.6513 12.2933C29.0813 12.2933 30.2638 13.4267 30.2638 14.8267V17.1733C30.2638 18.56 29.095 19.7067 27.6513 19.7067C25.1625 19.7067 24.145 21.4133 25.3962 23.5067C26.1112 24.72 25.685 26.2667 24.4338 26.96L22.055 28.28C20.9688 28.9067 19.5663 28.5333 18.92 27.48L18.7687 27.2267C17.5312 25.1333 15.4962 25.1333 14.245 27.2267L14.0938 27.48C13.4475 28.5333 12.045 28.9067 10.9587 28.28L8.58 26.96C7.32875 26.2667 6.9025 24.7067 7.6175 23.5067C8.86875 21.4133 7.85125 19.7067 5.3625 19.7067C3.91875 19.7067 2.75 18.56 2.75 17.1733Z" stroke="#292D32" stroke-width="1.5" stroke-miterlimit="10" stroke-linecap="round" stroke-linejoin="round"/>
</svg>
