<svg width="24" height="27" viewBox="0 0 24 27" fill="none" xmlns="http://www.w3.org/2000/svg">
<path d="M16 14.5125V19.2375C16 23.175 14.6 24.75 11.1 24.75H6.9C3.4 24.75 2 23.175 2 19.2375V14.5125C2 10.575 3.4 9 6.9 9H11.1C14.6 9 16 10.575 16 14.5125Z" stroke="#292D32" stroke-width="1.5" stroke-linecap="round" stroke-linejoin="round"/>
<path d="M22 7.7625V12.4875C22 16.425 20.6 18 17.1 18H16V14.5125C16 10.575 14.6 9 11.1 9H8V7.7625C8 3.825 9.4 2.25 12.9 2.25H17.1C20.6 2.25 22 3.825 22 7.7625Z" stroke="#292D32" stroke-width="1.5" stroke-linecap="round" stroke-linejoin="round"/>
</svg>
